#!OML:ASF I:\Actors\actors\Patient Classification 1\Patient 1\Session 1\Subject1.ASF
:FULLY-SPECIFIED
:DEGREES
1908
root 0.0715211 17.5545 7.77178 18.0248 -2.95324 -10.2151
lowerback 5.07946 1.73071 5.26829
upperback -0.729093 2.71081 2.0376
thorax -3.46108 1.26266 -1.05831
lowerneck -17.1095 -4.80816 -3.56223
upperneck 17.304 -7.5888 9.03207
head 8.73332 -2.88136 2.67831
rclavicle 1.49089e-015 -1.35174e-014
rhumerus 1.77483 25.9798 -91.1458
rradius 93.3948
rwrist 19.7921
rhand -24.9919 -54.5499
rfingers 7.12502
rthumb 1.51941 -444.524
lclavicle 1.49089e-015 -1.35174e-014
lhumerus 14.9068 -29.0729 92.8415
lradius 97.0654
lwrist -43.4317
lhand 1.74178 -30.8255
lfingers 7.12502
lthumb 27.2576 -2.77533
rfemur -19.439 25.3728 18.1603
rtibia 5.21085
rfoot -8.80047 -25.2328
rtoes 1.76011
lfemur -10.897 -65.6903 5.00233
ltibia -3.64152
lfoot -77.7982 60.6372
ltoes 38.8689
1909
root 0.0703982 17.553 7.7678 18.0323 -3.00479 -10.2377
lowerback 5.0562 1.75903 5.21799
upperback -0.69487 2.74262 2.05735
thorax -3.41384 1.28126 -1.01083
lowerneck -17.0719 -4.83043 -3.60253
upperneck 17.047 -7.59299 9.06453
head 8.64264 -2.89118 2.69434
rclavicle 9.34288e-015 1.35174e-014
rhumerus 2.49138 24.997 -91.3495
rradius 93.6163
rwrist 22.5226
rhand -26.1551 -55.6706
rfingers 7.12502
rthumb 0.395915 -445.65
lclavicle 9.34288e-015 1.35174e-014
lhumerus 14.435 -28.2896 93.795
lradius 96.4119
lwrist -44.1038
lhand -7.84728 -36.7807
lfingers 7.12502
lthumb 18.0558 -7.59874
rfemur -19.497 25.4018 18.1689
rtibia 5.25589
rfoot -8.7609 -25.2098
rtoes 1.67604
lfemur -10.7795 -65.6046 4.93559
ltibia -3.7065
lfoot -77.8239 60.4507
ltoes 39.0756
1910
root 0.071675 17.5515 7.76264 18.0236 -3.00118 -10.2042
lowerback 5.07082 1.76629 5.14593
upperback -0.679055 2.74854 2.07044
thorax -3.40919 1.28605 -0.958006
lowerneck -17.1438 -4.8805 -3.63238
upperneck 16.968 -7.63714 9.02277
head 8.631 -2.91829 2.67751
rclavicle -5.76476e-015 -3.57812e-015
rhumerus 3.134 23.939 -91.4087
rradius 93.8843
rwrist 25.1619
rhand -27.1564 -56.1206
rfingers 7.12502
rthumb -0.571156 -446.1
lclavicle -5.76476e-015 -3.57812e-015
lhumerus 13.9364 -27.6666 94.6915
lradius 95.5209
lwrist -43.9821
lhand -16.3799 -42.794
lfingers 7.12502
lthumb 9.83361 -13.0436
rfemur -19.5243 25.3944 18.114
rtibia 5.2635
rfoot -8.71382 -25.2286
rtoes 1.44482
lfemur -10.7191 -65.5901 4.85856
ltibia -3.75874
lfoot -77.8592 60.2596
ltoes 39.3578
1911
root 0.0740529 17.5508 7.75826 18.016 -2.96883 -10.1718
lowerback 5.11341 1.77495 5.08808
upperback -0.696019 2.76108 2.08969
thorax -3.45371 1.29235 -0.908871
lowerneck -17.2653 -4.95152 -3.63689
upperneck 16.9914 -7.70968 8.90802
head 8.66046 -2.96013 2.62769
rclavicle 3.57812e-015 5.56597e-015
rhumerus 3.71494 22.8585 -91.2475
rradius 94.1619
rwrist 28.2391
rhand -27.5718 -56.5455
rfingers 7.12502
rthumb -0.972366 -446.523
lclavicle 3.57812e-015 5.56597e-015
lhumerus 13.4225 -27.2479 95.4253
lradius 94.6803
lwrist -43.3085
lhand -22.9219 -48.7437
lfingers 7.12502
lthumb 3.51852 -18.7929
rfemur -19.5392 25.3715 18.0584
rtibia 5.27021
rfoot -8.77606 -25.2429
rtoes 1.33545
lfemur -10.747 -65.5996 4.84564
ltibia -3.76785
lfoot -77.8025 60.2475
ltoes 39.443
1912
root 0.0762073 17.5514 7.75387 18.0289 -2.85185 -10.1681
lowerback 5.16247 1.75947 5.05733
upperback -0.733123 2.74582 2.14105
thorax -3.52466 1.28377 -0.840211
lowerneck -17.3377 -4.95984 -3.6027
upperneck 16.9619 -7.70204 8.79589
head 8.65617 -2.9645 2.58373
rclavicle -9.93923e-016 -8.74653e-015
rhumerus 4.104 21.8086 -91.0297
rradius 94.5478
rwrist 31.7356
rhand -28.0755 -56.3783
rfingers 7.12502
rthumb -1.45884 -446.353
lclavicle -9.93923e-016 -8.74653e-015
lhumerus 12.9503 -27.1524 95.9234
lradius 94.0437
lwrist -42.3399
lhand -27.5444 -53.6692
lfingers 7.12502
lthumb -0.945853 -23.6916
rfemur -19.5792 25.368 18.0264
rtibia 5.29179
rfoot -8.86867 -25.3395
rtoes 1.55772
lfemur -11.0263 -65.6468 5.10833
ltibia -3.74591
lfoot -77.7318 60.33
ltoes 39.3624
